<mxfile host="app.diagrams.net" modified="2021-12-25T06:18:12.182Z" agent="5.0 (Macintosh; Intel Mac OS X 10_15_7) AppleWebKit/537.36 (KHTML, like Gecko) Chrome/96.0.4664.93 Safari/537.36" etag="4nXf0MR69s1fF23QG4XL" version="16.1.0" type="github">
  <diagram id="nk9-EmBHSKoG096Mw3YC" name="Page-1">
    <mxGraphModel dx="582" dy="734" grid="1" gridSize="10" guides="1" tooltips="1" connect="1" arrows="1" fold="1" page="1" pageScale="1" pageWidth="827" pageHeight="1169" math="0" shadow="0">
      <root>
        <mxCell id="0" />
        <mxCell id="1" parent="0" />
        <mxCell id="WWQi5mJF8vJC9sChmX3h-11" value="&lt;span style=&quot;&quot;&gt;github&lt;/span&gt;" style="rounded=0;whiteSpace=wrap;html=1;align=left;horizontal=1;verticalAlign=top;" vertex="1" parent="1">
          <mxGeometry x="30" y="30" width="200" height="220" as="geometry" />
        </mxCell>
        <mxCell id="WWQi5mJF8vJC9sChmX3h-3" value="" style="endArrow=classic;html=1;rounded=0;exitX=1;exitY=0.5;exitDx=0;exitDy=0;exitPerimeter=0;entryX=0;entryY=0.5;entryDx=0;entryDy=0;" edge="1" parent="1" source="WWQi5mJF8vJC9sChmX3h-8" target="WWQi5mJF8vJC9sChmX3h-10">
          <mxGeometry width="50" height="50" relative="1" as="geometry">
            <mxPoint x="210" y="85" as="sourcePoint" />
            <mxPoint x="380" y="80" as="targetPoint" />
          </mxGeometry>
        </mxCell>
        <mxCell id="WWQi5mJF8vJC9sChmX3h-6" value="apps" style="whiteSpace=wrap;html=1;aspect=fixed;" vertex="1" parent="1">
          <mxGeometry x="390" y="140" width="90" height="90" as="geometry" />
        </mxCell>
        <mxCell id="WWQi5mJF8vJC9sChmX3h-7" value="" style="endArrow=classic;html=1;rounded=0;exitX=0;exitY=0.5;exitDx=0;exitDy=0;entryX=1;entryY=0.5;entryDx=0;entryDy=0;entryPerimeter=0;" edge="1" parent="1" source="WWQi5mJF8vJC9sChmX3h-6" target="WWQi5mJF8vJC9sChmX3h-9">
          <mxGeometry width="50" height="50" relative="1" as="geometry">
            <mxPoint x="220" y="95" as="sourcePoint" />
            <mxPoint x="210" y="185" as="targetPoint" />
          </mxGeometry>
        </mxCell>
        <mxCell id="WWQi5mJF8vJC9sChmX3h-8" value="apps" style="shape=cylinder3;whiteSpace=wrap;html=1;boundedLbl=1;backgroundOutline=1;size=15;" vertex="1" parent="1">
          <mxGeometry x="90" y="50" width="80" height="75" as="geometry" />
        </mxCell>
        <mxCell id="WWQi5mJF8vJC9sChmX3h-9" value="orchestrator" style="shape=cylinder3;whiteSpace=wrap;html=1;boundedLbl=1;backgroundOutline=1;size=15;" vertex="1" parent="1">
          <mxGeometry x="90" y="150" width="80" height="75" as="geometry" />
        </mxCell>
        <mxCell id="WWQi5mJF8vJC9sChmX3h-10" value="&lt;span&gt;container repository&lt;/span&gt;" style="rounded=0;whiteSpace=wrap;html=1;" vertex="1" parent="1">
          <mxGeometry x="375" y="57.5" width="120" height="60" as="geometry" />
        </mxCell>
      </root>
    </mxGraphModel>
  </diagram>
</mxfile>
